<svg width="376" height="385" viewBox="0 0 376 385" fill="none" xmlns="http://www.w3.org/2000/svg">
<path fill-rule="evenodd" clip-rule="evenodd" d="M171.311 0.322484C215.001 -2.11052 254.668 9.22348 290.311 34.3225C287.659 38.3045 284.659 41.9715 281.311 45.3225C224.336 8.65648 165.669 5.82348 105.311 36.8225C52.222 68.1015 22.055 114.601 14.811 176.322C12.138 217.634 21.972 255.634 44.311 290.322C41.214 293.71 37.547 296.377 33.311 298.322C0.350014 248.742 -8.14999 195.075 7.81101 137.322C34.867 58.7565 89.367 13.0905 171.311 0.322484Z" fill="#F3F3F3"/>
<path fill-rule="evenodd" clip-rule="evenodd" d="M311.311 44.3225C327.16 43.7335 333.326 51.0665 329.811 66.3225C325.477 73.1055 319.31 75.6055 311.311 73.8225C302.51 69.0495 299.677 61.8825 302.811 52.3225C304.968 48.8465 307.801 46.1795 311.311 44.3225Z" fill="#D20A1D"/>
<path fill-rule="evenodd" clip-rule="evenodd" d="M282.311 84.3225C286.934 83.2305 288.767 84.8975 287.811 89.3225C265.845 133.07 243.345 176.403 220.311 219.322C215.017 215.695 210.35 211.362 206.311 206.322C211.426 195.641 209.759 186.141 201.311 177.822C192.725 172.218 184.058 172.051 175.311 177.322C169.978 172.655 164.978 167.655 160.311 162.322C201.042 136.298 241.709 110.298 282.311 84.3225Z" fill="#D20C1E"/>
<path fill-rule="evenodd" clip-rule="evenodd" d="M153.311 170.322C159.138 174.093 164.472 178.593 169.311 183.822C163.222 197.473 166.556 208.14 179.311 215.822C186.374 218.106 193.041 217.272 199.311 213.322C204.833 217.922 210.167 222.755 215.311 227.822C174.478 253.406 133.478 278.739 92.311 303.822C88.15 306.433 85.15 305.6 83.311 301.322C105.889 257.162 129.222 213.495 153.311 170.322Z" fill="#F7F7F7"/>
<path fill-rule="evenodd" clip-rule="evenodd" d="M52.3111 310.322C66.8761 309.709 72.3761 316.376 68.8111 330.322C62.1691 338.7 54.8351 339.366 46.8111 332.322C42.0751 323.2 43.9081 315.867 52.3111 310.322Z" fill="#F3F2F3"/>
<path fill-rule="evenodd" clip-rule="evenodd" d="M340.311 85.3225C341.307 85.2365 342.14 85.5705 342.811 86.3225C381.29 147.572 385.623 211.239 355.811 277.322C325.116 338.113 275.95 373.613 208.311 383.822C161.623 388.154 119.623 376.32 82.311 348.322C81.29 347.82 81.123 347.154 81.811 346.322C84.478 342.989 87.144 339.655 89.811 336.322C134.695 368.43 183.862 377.264 237.311 362.822C293.958 344.176 332.124 306.676 351.811 250.322C368.857 194.368 361.69 141.868 330.311 92.8225C333.891 90.5455 337.225 88.0455 340.311 85.3225Z" fill="#F2F2F2"/>
</svg>
