<svg width="40" height="41" viewBox="0 0 40 41" fill="none" xmlns="http://www.w3.org/2000/svg">
<path fill-rule="evenodd" clip-rule="evenodd" d="M18.2571 0.0343678C22.9132 -0.224922 27.1407 0.982966 30.9392 3.65782C30.6566 4.08219 30.3369 4.47299 29.9801 4.83012C23.9081 0.92254 17.6558 0.620621 11.2233 3.92425C5.56544 7.25772 2.35046 12.2133 1.57845 18.7911C1.29358 23.1938 2.34162 27.2435 4.72234 30.9403C4.39229 31.3014 4.00149 31.5856 3.55004 31.7929C0.0373019 26.509 -0.868566 20.7896 0.83244 14.6348C3.71587 6.26181 9.52408 1.39508 18.2571 0.0343678Z" fill="#191919"/>
<path fill-rule="evenodd" clip-rule="evenodd" d="M33.1771 4.72372C34.8662 4.66094 35.5233 5.44244 35.1487 7.0683C34.6868 7.79118 34.0296 8.05761 33.1771 7.86759C32.2391 7.35893 31.9372 6.59512 32.2712 5.57629C32.5011 5.20585 32.803 4.92162 33.1771 4.72372Z" fill="#D20A1D"/>
<path fill-rule="evenodd" clip-rule="evenodd" d="M30.0859 8.98621C30.5785 8.86983 30.7739 9.04749 30.672 9.51907C28.331 14.1814 25.9331 18.7995 23.4783 23.3734C22.9142 22.9869 22.4168 22.5251 21.9863 21.988C22.5314 20.8497 22.3538 19.8373 21.4535 18.9507C20.5384 18.3535 19.6148 18.3357 18.6826 18.8974C18.1142 18.4 17.5814 17.8672 17.084 17.2988C21.4248 14.5254 25.7588 11.7545 30.0859 8.98621Z" fill="#D20C1E"/>
<path fill-rule="evenodd" clip-rule="evenodd" d="M16.339 18.1519C16.96 18.5537 17.5285 19.0333 18.0442 19.5906C17.3952 21.0454 17.7506 22.1822 19.1099 23.0009C19.8626 23.2443 20.5731 23.1554 21.2413 22.7345C21.8298 23.2247 22.3983 23.7398 22.9465 24.2798C18.5948 27.0063 14.2253 29.7061 9.83806 32.3792C9.39461 32.6575 9.07489 32.5687 8.87891 32.1128C11.2851 27.4066 13.7718 22.7529 16.339 18.1519Z" fill="#191919"/>
<path fill-rule="evenodd" clip-rule="evenodd" d="M5.57488 33.0715C7.12711 33.0062 7.71326 33.7167 7.33333 35.203C6.62548 36.0958 5.84387 36.1668 4.98873 35.4161C4.484 34.4439 4.67935 33.6625 5.57488 33.0715Z" fill="#191919"/>
<path fill-rule="evenodd" clip-rule="evenodd" d="M36.2681 9.0932C36.3743 9.08404 36.463 9.11963 36.5345 9.19978C40.6353 15.7273 41.0971 22.5125 37.92 29.5551C34.6487 36.0337 29.409 39.817 22.2005 40.905C17.2248 41.3667 12.7488 40.1055 8.77235 37.1217C8.66354 37.0682 8.64574 36.9972 8.71906 36.9085C9.00329 36.5533 9.28741 36.198 9.57164 35.8428C14.3551 39.2646 19.5949 40.2061 25.2911 38.667C31.3281 36.6798 35.3956 32.6834 37.4937 26.6776C39.3103 20.7145 38.5465 15.1194 35.2024 9.8925C35.5839 9.64983 35.9392 9.3834 36.2681 9.0932Z" fill="#191919"/>
</svg>
