<svg width="132" height="32" viewBox="0 0 132 32" fill="none" xmlns="http://www.w3.org/2000/svg">
<path fill-rule="evenodd" clip-rule="evenodd" d="M21.9213 23.0442C21.9349 23.1677 22.0101 23.2434 22.1473 23.2716C22.3733 15.8451 22.4486 8.4169 22.3733 0.98737C23.88 0.98737 25.3865 0.98737 26.8932 0.98737C26.8932 11.0683 26.8932 21.1494 26.8932 31.2303C25.2163 31.2978 23.5589 31.2221 21.9213 31.0029C16.2358 23.8092 10.5482 16.6084 4.85885 9.40081C4.74585 16.6769 4.70811 23.9533 4.74585 31.2303C3.1639 31.2303 1.58195 31.2303 0 31.2303C0 21.0734 0 10.9168 0 0.759979C1.58376 0.722233 3.16571 0.759979 4.74585 0.873675C10.4332 8.3007 16.1585 15.6909 21.9213 23.0442Z" fill="#191919"/>
<path fill-rule="evenodd" clip-rule="evenodd" d="M64.634 31.5625C62.8677 31.7881 61.0597 31.864 59.2102 31.7899C56.0519 24.8281 52.775 17.9305 49.3795 11.0974C45.9695 17.8841 42.6171 24.7058 39.3228 31.5625C37.5196 31.8274 35.7116 31.8654 33.899 31.6762C38.942 21.111 44.1398 10.613 49.4925 0.182633C54.6623 10.586 59.7094 21.0459 64.634 31.5625Z" fill="#191919"/>
<path d="M51.9033 28.314C51.9033 29.8838 50.6385 31.1563 49.0783 31.1563C47.5182 31.1563 46.2534 29.8838 46.2534 28.314C46.2534 26.7442 47.5182 25.4716 49.0783 25.4716C50.6385 25.4716 51.9033 26.7442 51.9033 28.314Z" fill="#D20A1C"/>
<path fill-rule="evenodd" clip-rule="evenodd" d="M72.3178 0.8943C75.6241 8.63262 78.8264 16.4398 81.9225 24.3155C85.1587 16.4419 88.5102 8.6349 91.9792 0.8943C93.7532 0.820399 95.4866 0.89612 97.177 1.12169C92.7498 11.035 88.3429 20.9642 83.9564 30.9098C82.5756 31.2075 81.1812 31.2075 79.7756 30.9098C75.4907 21.0008 71.2737 11.0716 67.1199 1.12169C68.8108 0.89612 70.5437 0.820399 72.3178 0.8943Z" fill="#191919"/>
<path fill-rule="evenodd" clip-rule="evenodd" d="M103.555 0.3881C106.174 0.359677 107.343 1.64807 107.058 4.25374C106.215 5.90914 104.897 6.47762 103.103 5.95917C101.709 5.08485 101.22 3.8342 101.634 2.20722C102.102 1.39385 102.744 0.787398 103.555 0.3881Z" fill="#D20A1C"/>
<path fill-rule="evenodd" clip-rule="evenodd" d="M106.669 9.55549C106.669 16.9077 106.669 24.2601 106.669 31.6124C105.087 31.6124 103.505 31.6124 101.923 31.6124C101.923 24.2601 101.923 16.9077 101.923 9.55549C103.505 9.55549 105.087 9.55549 106.669 9.55549Z" fill="#191919"/>
<path fill-rule="evenodd" clip-rule="evenodd" d="M119.55 0.151252C123.996 -0.454289 127.837 0.758384 131.076 3.7895C130.247 5.00217 129.419 6.21507 128.59 7.42774C125.539 4.69269 122.149 4.12422 118.42 5.72232C116.312 7.69311 116.312 9.66367 118.42 11.6345C119.062 12.0711 119.74 12.4501 120.454 12.7714C123.013 13.5787 125.498 14.5639 127.912 15.7275C132.403 19.097 133.194 23.228 130.285 28.1203C127.352 31.1762 123.774 32.4268 119.55 31.8722C116.303 31.3765 113.591 29.9364 111.415 27.5518C112.197 26.2725 113.024 25.0218 113.9 23.7999C115.889 25.8611 118.298 27.0738 121.132 27.4381C123.107 27.572 124.802 26.9656 126.217 25.619C127.657 22.7907 126.94 20.7062 124.07 19.3657C121.428 18.5878 118.868 17.6023 116.386 16.4097C111.891 13.4106 110.8 9.43128 113.11 4.47167C114.764 2.25848 116.911 0.818415 119.55 0.151252Z" fill="#191919"/>
</svg>
