<svg width="593" height="141" viewBox="0 0 593 141" fill="none" xmlns="http://www.w3.org/2000/svg">
<g clip-path="url(#clip0_140_277)">
<path fill-rule="evenodd" clip-rule="evenodd" d="M97 101.342C97.06 101.885 97.393 102.218 98 102.342C99 69.6822 99.333 37.0152 99 4.34217C105.667 4.34217 112.333 4.34217 119 4.34217C119 48.6752 119 93.0092 119 137.342C111.58 137.639 104.246 137.306 97 136.342C71.842 104.706 46.675 73.0392 21.5 41.3422C21 73.3402 20.833 105.34 21 137.342C14 137.342 7 137.342 0 137.342C0 92.6752 0 48.0092 0 3.34217C7.008 3.17617 14.008 3.34217 21 3.84217C46.166 36.5042 71.5 69.0042 97 101.342Z" fill="#F6F6F6"/>
<path fill-rule="evenodd" clip-rule="evenodd" d="M280 138.803C272.184 139.795 264.184 140.129 256 139.803C242.025 109.187 227.525 78.8532 212.5 48.8032C197.411 78.6492 182.577 108.649 168 138.803C160.021 139.968 152.021 140.135 144 139.303C166.315 92.8402 189.315 46.6732 213 0.803177C235.876 46.5542 258.209 92.5542 280 138.803Z" fill="#F5F5F5"/>
<path fill-rule="evenodd" clip-rule="evenodd" d="M207 108.803C222.566 107.636 227.733 114.303 222.5 128.803C215.162 135.66 208.162 135.326 201.5 127.803C198.268 119.876 200.101 113.543 207 108.803Z" fill="#D20A1C"/>
<path fill-rule="evenodd" clip-rule="evenodd" d="M314 3.93289C328.63 37.9639 342.8 72.2979 356.5 106.933C370.82 72.3069 385.65 37.9739 401 3.93289C408.85 3.60789 416.52 3.94089 424 4.93289C404.41 48.5289 384.91 92.1949 365.5 135.933C359.39 137.242 353.22 137.242 347 135.933C328.04 92.3559 309.38 48.6899 291 4.93289C298.482 3.94089 306.15 3.60789 314 3.93289Z" fill="#F5F5F5"/>
<path fill-rule="evenodd" clip-rule="evenodd" d="M459.222 1.70675C470.812 1.58175 475.982 7.24775 474.722 18.7068C470.992 25.9868 465.162 28.4868 457.222 26.2068C451.052 22.3618 448.892 16.8618 450.722 9.70675C452.792 6.12975 455.632 3.46275 459.222 1.70675Z" fill="#D20A1C"/>
<path fill-rule="evenodd" clip-rule="evenodd" d="M473 42.0224C473 74.3554 473 106.689 473 139.022C466 139.022 459 139.022 452 139.022C452 106.689 452 74.3554 452 42.0224C459 42.0224 466 42.0224 473 42.0224Z" fill="#F1F0F1"/>
<path fill-rule="evenodd" clip-rule="evenodd" d="M537 0.665163C556.67 -1.99784 573.67 3.33516 588 16.6652C584.33 21.9982 580.67 27.3322 577 32.6652C563.5 20.6372 548.5 18.1372 532 25.1652C522.67 33.8322 522.67 42.4982 532 51.1652C534.84 53.0852 537.84 54.7522 541 56.1652C552.32 59.7152 563.32 64.0482 574 69.1652C593.87 83.9832 597.37 102.15 584.5 123.665C571.52 137.104 555.69 142.604 537 140.165C522.63 137.985 510.63 131.652 501 121.165C504.46 115.539 508.12 110.039 512 104.665C520.8 113.73 531.46 119.063 544 120.665C552.74 121.254 560.24 118.587 566.5 112.665C572.87 100.227 569.7 91.0602 557 85.1652C545.31 81.7442 533.98 77.4102 523 72.1652C503.11 58.9762 498.28 41.4762 508.5 19.6652C515.82 9.93216 525.32 3.59916 537 0.665163Z" fill="#F5F5F5"/>
</g>
<defs>
<clipPath id="clip0_140_277">
<rect width="592.089" height="140.727" fill="white"/>
</clipPath>
</defs>
</svg>
